<?xml version="1.0" encoding="UTF-8" standalone="no"?>
<!-- Created with Inkscape (http://www.inkscape.org/) -->

<svg
   xmlns:dc="http://purl.org/dc/elements/1.1/"
   xmlns:cc="http://creativecommons.org/ns#"
   xmlns:rdf="http://www.w3.org/1999/02/22-rdf-syntax-ns#"
   xmlns:svg="http://www.w3.org/2000/svg"
   xmlns="http://www.w3.org/2000/svg"
   xmlns:sodipodi="http://sodipodi.sourceforge.net/DTD/sodipodi-0.dtd"
   xmlns:inkscape="http://www.inkscape.org/namespaces/inkscape"
   width="640"
   height="350"
   viewBox="0 0 169.33333 92.604169"
   version="1.1"
   id="svg8"
   inkscape:version="0.92.3 (2405546, 2018-03-11)"
   sodipodi:docname="mail.devzone.pw.svg">
  <defs
     id="defs2" />
  <sodipodi:namedview
     id="base"
     pagecolor="#ffffff"
     bordercolor="#666666"
     borderopacity="1.0"
     inkscape:pageopacity="0.0"
     inkscape:pageshadow="2"
     inkscape:zoom="0.90141451"
     inkscape:cx="271.9714"
     inkscape:cy="212.14915"
     inkscape:document-units="mm"
     inkscape:current-layer="layer1"
     showgrid="false"
     units="px"
     inkscape:pagecheckerboard="true"
     inkscape:window-width="1366"
     inkscape:window-height="713"
     inkscape:window-x="0"
     inkscape:window-y="27"
     inkscape:window-maximized="1" />
  <metadata
     id="metadata5">
    <rdf:RDF>
      <cc:Work
         rdf:about="">
        <dc:format>image/svg+xml</dc:format>
        <dc:type
           rdf:resource="http://purl.org/dc/dcmitype/StillImage" />
        <dc:title></dc:title>
      </cc:Work>
    </rdf:RDF>
  </metadata>
  <g
     inkscape:label="Layer 1"
     inkscape:groupmode="layer"
     id="layer1"
     transform="translate(0,-204.39582)">
    <g
       id="g939"
       transform="matrix(1.0344126,0,0,1.0344126,-3.0105718,-7.3819907)">
      <g
         id="flowRoot815"
         style="font-style:normal;font-variant:normal;font-weight:normal;font-stretch:normal;font-size:40px;line-height:1.25;font-family:Futura-Bold;-inkscape-font-specification:Futura-Bold;letter-spacing:0px;word-spacing:0px;fill:#395050;fill-opacity:1;stroke:#395050;stroke-width:0;stroke-miterlimit:4;stroke-dasharray:none;stroke-opacity:1"
         transform="matrix(0.28694039,0,0,0.28035544,-13.678667,206.52512)"
         aria-label="Dev">
        <path
           inkscape:connector-curvature="0"
           id="path887"
           style="font-style:normal;font-variant:normal;font-weight:normal;font-stretch:normal;font-size:133.33332825px;line-height:1.25;font-family:Futura-Bold;-inkscape-font-specification:Futura-Bold;letter-spacing:-14.82688427px;fill:#395050;fill-opacity:1;stroke:#395050;stroke-width:0;stroke-miterlimit:4;stroke-dasharray:none;stroke-opacity:1"
           d="M 57.813694,207.1991 V 106.66577 H 94.88036 q 21.06667,0.13333 36,14.66666 15.06666,14.53333 15.06666,35.73333 0,21.2 -15.06666,35.73334 -15.06667,14.4 -36,14.4 z m 26.133333,-78.4 v 56.26666 h 5.866666 q 11.733337,0.13334 20.266667,-6.53333 8.66667,-6.8 8.66667,-21.46667 0,-13.46666 -8,-20.8 -8,-7.33333 -20.66667,-7.33333 z" />
        <path
           inkscape:connector-curvature="0"
           id="path889"
           style="font-style:normal;font-variant:normal;font-weight:normal;font-stretch:normal;font-size:133.33332825px;line-height:1.25;font-family:Futura-Bold;-inkscape-font-specification:Futura-Bold;letter-spacing:-14.82688427px;fill:#395050;fill-opacity:1;stroke:#395050;stroke-width:0;stroke-miterlimit:4;stroke-dasharray:none;stroke-opacity:1"
           d="m 212.98056,174.53243 v 2.53333 h -51.06667 q 0,7.46667 3.86667,11.46667 3.86667,3.86667 11.33333,3.86667 3.86667,0 6.66667,-1.46667 2.93333,-1.46667 4.93333,-4.8 l 23.33333,-0.13333 q -2.93333,12.26666 -13.06666,17.86666 -10,5.6 -21.73333,5.6 -16.93334,0 -28.26667,-9.2 -11.33333,-9.33333 -11.33333,-27.06666 0,-17.06667 10.53333,-26.8 10.66667,-9.73334 27.33333,-9.73334 17.86667,0 27.6,10.26667 9.86667,10.26667 9.86667,27.73333 z m -50.66667,-11.46667 h 28.13334 q -0.93334,-4.8 -4.93334,-7.73333 -3.86666,-2.93333 -8.8,-2.93333 -5.33333,0 -9.33333,2.8 -4,2.66666 -5.06667,8 z" />
        <path
           id="path891"
           style="font-style:normal;font-variant:normal;font-weight:normal;font-stretch:normal;font-size:133.33332825px;line-height:1.25;font-family:Futura-Bold;-inkscape-font-specification:Futura-Bold;letter-spacing:-14.82688427px;fill:#395050;fill-opacity:1;stroke:#395050;stroke-width:0;stroke-miterlimit:4;stroke-dasharray:none;stroke-opacity:1"
           d="m 225.54492,138.7991 16.4,35.06666 16.26667,-35.06666 h 27.2 l -35.73333,68.4 h -15.46667 l -35.86666,-68.4 z"
           inkscape:connector-curvature="0" />
      </g>
      <g
         id="flowRoot823"
         style="font-style:normal;font-variant:normal;font-weight:normal;font-stretch:normal;font-size:40px;line-height:1.25;font-family:Futura-Bold;-inkscape-font-specification:Futura-Bold;letter-spacing:0px;word-spacing:0px;fill:none;fill-opacity:1;stroke:#395050;stroke-width:5.14927816;stroke-linecap:round;stroke-linejoin:miter;stroke-miterlimit:4;stroke-dasharray:none;stroke-opacity:1"
         transform="matrix(0.2417079,0,0,0.27307466,3.5884461,204.57734)"
         aria-label="Zone">
        <path
           id="path878"
           style="font-size:133.33332825px;letter-spacing:-10.62907028px;fill:none;stroke:#395050;stroke-width:5.14927816;stroke-linecap:round;stroke-linejoin:miter;stroke-miterlimit:4;stroke-dasharray:none;stroke-opacity:1"
           d="m 269.72057,195.16733 h 42.13333 v 22.13333 h -86.13333 l 47.6,-78.4 h -39.46666 v -22.13333 h 83.19999 z"
           inkscape:connector-curvature="0" />
        <path
           id="path880"
           style="font-size:133.33332825px;letter-spacing:-10.62907028px;fill:none;stroke:#395050;stroke-width:5.14927816;stroke-linecap:round;stroke-linejoin:miter;stroke-miterlimit:4;stroke-dasharray:none;stroke-opacity:1"
           d="m 352.02899,146.63399 q 16.53333,0.13334 28.8,9.73334 12.4,9.46666 12.4,26.93333 0,17.33333 -12.4,26.8 -12.26667,9.46666 -28.8,9.46666 -16.4,0 -28.8,-9.33333 -12.4,-9.46666 -12.4,-26.93333 0,-17.46667 12.26667,-26.93333 12.4,-9.6 28.93333,-9.6 z m 0,21.06667 q -7.33333,0.13333 -11.46666,4.8 -4.13334,4.53333 -4.13334,10.8 0,6.53333 4.13334,10.93333 4.13333,4.4 11.46666,4.4 7.46667,0 11.46667,-4.4 4.13333,-4.4 4.13333,-10.93333 0,-6.26667 -4.13333,-10.8 -4,-4.66667 -11.46667,-4.66667 z"
           inkscape:connector-curvature="0" />
        <path
           id="path882"
           style="font-size:133.33332825px;letter-spacing:-10.62907028px;fill:none;stroke:#395050;stroke-width:5.14927816;stroke-linecap:round;stroke-linejoin:miter;stroke-miterlimit:4;stroke-dasharray:none;stroke-opacity:1"
           d="m 417.81452,148.90066 v 8.8 h 0.26666 q 4.26667,-6.13333 9.46667,-8.53333 5.33333,-2.4 12.4,-2.4 13.86667,0 19.73333,7.86666 6,7.86667 6,20.53334 v 42.13333 h -24.26666 v -33.33333 q 0,-0.26667 0,-0.66667 0,-0.4 0,-0.8 0,-1.2 0,-2.53333 0,-1.33334 -0.13334,-2.66667 -0.26666,-4.13333 -2.4,-7.6 -2.13333,-3.6 -8.4,-3.6 -7.33333,0 -10,4.8 -2.66666,4.66667 -2.66666,11.06667 v 35.33333 h -24.26667 v -68.4 z"
           inkscape:connector-curvature="0" />
        <path
           sodipodi:nodetypes="ccccsccccscscsccccccsccc"
           inkscape:connector-curvature="0"
           id="path884"
           style="font-size:133.33332825px;letter-spacing:-10.62907028px;fill:none;stroke:#395050;stroke-width:5.14927816;stroke-linecap:round;stroke-linejoin:miter;stroke-miterlimit:4;stroke-dasharray:none;stroke-opacity:1"
           d="m 541.20627,184.63399 v 2.53334 H 490.1396 c 0,4.97777 1.28889,8.79999 3.86667,11.46666 2.57778,2.57778 6.35556,3.86667 11.33333,3.86667 2.57778,0 4.8,-0.48889 6.66667,-1.46667 1.95555,-0.97777 3.6,-2.57777 4.93333,-4.8 l 23.33334,-0.13333 c -1.95556,8.17777 -6.31112,14.13333 -13.06667,17.86666 -6.66667,3.73333 -13.91111,5.6 -21.73333,5.6 -11.28889,0 -20.71112,-3.06667 -28.26667,-9.2 -7.55555,-6.22222 -11.33333,-15.24444 -11.33333,-27.06666 0,-11.37778 3.51111,-20.31111 10.53333,-26.8 7.11111,-6.48889 16.22222,-9.73333 27.33333,-9.73333 11.91111,0 21.11111,3.42222 27.6,10.26666 6.57778,6.84445 9.86667,16.08889 9.86667,27.73334 z M 490.5396,173.16733 h 28.13334 c -0.62223,-3.2 -2.26667,-5.77778 -4.93334,-7.73334 -2.57777,-1.95555 -5.51111,-2.93333 -8.8,-2.93333 -3.55555,0 -6.66666,0.93333 -9.33333,2.8 -2.66667,1.77778 -4.35556,4.31112 -5.06667,7.86667 z" />
      </g>
      <g
         id="text833"
         style="font-style:normal;font-variant:normal;font-weight:normal;font-stretch:normal;font-size:11.90624905px;line-height:1.25;font-family:Futura-Bold;-inkscape-font-specification:Futura-Bold;letter-spacing:0px;word-spacing:0px;fill:#395050;fill-opacity:1;stroke:#395050;stroke-width:0;stroke-miterlimit:4;stroke-dasharray:none;stroke-opacity:1"
         aria-label=".pw">
        <path
           inkscape:connector-curvature="0"
           id="path871"
           style="font-style:normal;font-variant:normal;font-weight:normal;font-stretch:normal;font-size:19.84375px;font-family:Futura-Bold;-inkscape-font-specification:Futura-Bold;letter-spacing:-2.3812499px;fill:#395050;fill-opacity:1;stroke:#395050;stroke-width:0;stroke-miterlimit:4;stroke-dasharray:none;stroke-opacity:1"
           d="m 134.82505,260.63009 q 0.97234,0.0198 1.64703,0.69453 0.67468,0.67468 0.67468,1.64703 0,0.9525 -0.67468,1.62719 -0.67469,0.67468 -1.64703,0.67468 -0.97235,0 -1.64704,-0.67468 -0.67468,-0.67469 -0.67468,-1.62719 0,-0.97235 0.67468,-1.64703 0.67469,-0.67469 1.64704,-0.67469 z" />
        <path
           inkscape:connector-curvature="0"
           id="path873"
           style="font-style:normal;font-variant:normal;font-weight:normal;font-stretch:normal;font-size:19.84375px;font-family:Futura-Bold;-inkscape-font-specification:Futura-Bold;letter-spacing:-2.3812499px;fill:#395050;fill-opacity:1;stroke:#395050;stroke-width:0;stroke-miterlimit:4;stroke-dasharray:none;stroke-opacity:1"
           d="m 140.30388,254.6968 v 1.15094 h 0.0397 q 0.45641,-0.69453 1.23031,-1.05172 0.77391,-0.37703 1.60735,-0.41672 0.0595,0 0.11906,0 0.0595,0 0.11906,0 2.28203,0 3.71078,1.64704 1.42875,1.62718 1.42875,3.81 0,2.20265 -1.42875,3.79015 -1.4089,1.5875 -3.67109,1.5875 -0.0794,0 -0.15875,0 -0.0595,0 -0.13891,0 -0.79375,-0.0595 -1.56765,-0.35719 -0.75406,-0.3175 -1.28985,-0.93265 v 6.0325 h -3.61156 V 254.6968 h 3.61156 z m 2.20266,2.79797 q -1.09141,0.0198 -1.70656,0.71438 -0.61516,0.67469 -0.61516,1.60734 0,0.97235 0.61516,1.62719 0.61515,0.65484 1.70656,0.65484 1.11125,0 1.70656,-0.65484 0.61516,-0.65484 0.61516,-1.62719 0,-0.93265 -0.61516,-1.60734 -0.59531,-0.69453 -1.70656,-0.69453 z" />
        <path
           inkscape:connector-curvature="0"
           id="path875"
           style="font-style:normal;font-variant:normal;font-weight:normal;font-stretch:normal;font-size:19.84375px;font-family:Futura-Bold;-inkscape-font-specification:Futura-Bold;letter-spacing:-2.3812499px;fill:#395050;fill-opacity:1;stroke:#395050;stroke-width:0;stroke-miterlimit:4;stroke-dasharray:none;stroke-opacity:1"
           d="m 150.25916,254.6968 2.54,5.51657 2.55984,-5.51657 h 2.14313 l 2.55984,5.51657 2.55984,-5.51657 h 3.9886 l -5.31813,10.17985 h -2.34156 l -2.52016,-5.5761 -2.52015,5.5761 h -2.34157 l -5.31812,-10.17985 z" />
      </g>
    </g>
  </g>
</svg>
